
<svg version="1.0" xmlns="http://www.w3.org/2000/svg"
 width="319.000000pt" height="319.000000pt" viewBox="0 0 319.000000 319.000000"
 preserveAspectRatio="xMidYMid meet">

<g transform="translate(0.000000,319.000000) scale(0.100000,-0.100000)"
 fill="#000000" stroke="white" stroke-width="10">
  <path d="M900 3091 c-81 -26 -130 -54 -174 -100 -27 -28 -56 -45 -92 -56 -104
  -30 -262 -177 -322 -299 -71 -143 -75 -163 -80 -376 l-4 -194 -43 -38 c-90
  -80 -124 -211 -86 -336 11 -38 28 -75 36 -82 34 -28 36 -46 10 -102 -37 -79
  -35 -165 5 -246 55 -110 144 -165 264 -164 59 0 75 -4 109 -26 40 -27 41 -27
  264 -30 l223 -4 0 185 0 185 -208 3 -208 4 -77 38 c-61 30 -85 49 -116 90 -93
  124 -93 262 -1 373 l40 49 0 187 c0 103 5 211 11 240 31 150 137 280 275 338
  67 28 94 34 182 38 l102 5 0 168 0 169 -27 -1 c-16 0 -53 -8 -83 -18z"/>
  <path d="M1150 2701 l0 -411 -70 0 -70 0 0 161 0 162 -88 -5 c-104 -6 -161
  -28 -225 -87 -25 -23 -55 -65 -68 -94 -21 -47 -24 -69 -27 -224 l-4 -173 276
  0 276 0 0 -85 0 -85 -279 0 c-273 0 -279 0 -312 -23 -97 -65 -62 -213 59 -247
  21 -5 145 -10 285 -10 l247 0 0 -355 0 -355 -307 0 c-304 0 -309 1 -368 25
  -33 14 -72 25 -87 25 -26 0 -28 -3 -28 -42 1 -85 67 -187 153 -234 47 -26 62
  -29 147 -30 73 0 103 -5 130 -19 24 -13 63 -20 127 -23 l92 -4 3 63 3 64 68 3
  67 3 0 -151 0 -150 -205 4 c-234 6 -232 7 -195 -68 31 -65 88 -119 166 -157
  64 -32 75 -34 169 -34 94 0 105 2 168 33 37 19 82 49 100 67 45 46 85 129 99
  202 l11 61 47 4 c66 7 133 42 191 101 52 53 79 117 79 188 l0 37 67 12 c82 14
  122 37 169 98 66 87 80 202 35 290 -23 44 -93 110 -128 118 -20 6 -23 12 -23
  60 0 49 2 54 23 54 82 0 178 72 218 163 47 110 17 244 -72 320 -43 37 -42 47
  8 47 l33 0 0 320 0 320 -85 0 -85 0 0 -245 0 -246 -187 -187 c-104 -103 -213
  -215 -243 -250 -49 -55 -60 -62 -92 -62 -54 0 -93 36 -93 88 0 45 14 65 67 98
  21 13 121 107 223 208 l185 183 0 245 c0 285 -4 302 -90 382 -62 58 -119 84
  -202 92 -58 6 -67 10 -113 55 -59 56 -131 94 -197 104 l-48 7 0 -411z m398 29
  c84 -51 79 -186 -8 -232 -45 -23 -91 -23 -139 1 -62 32 -83 119 -46 191 30 58
  130 78 193 40z m-79 -494 c57 -30 68 -110 20 -150 -40 -34 -88 -34 -126 -2
  -23 20 -28 32 -27 67 1 35 8 48 33 71 35 31 59 35 100 14z m442 -465 c49 -50
  28 -129 -38 -146 -18 -4 -97 -75 -215 -193 -103 -102 -195 -190 -205 -193 -36
  -15 -65 -8 -94 20 -23 23 -29 38 -29 71 0 33 6 48 29 71 17 17 40 29 55 29 19
  0 64 38 183 152 87 84 164 161 172 173 38 55 96 62 142 16z m-120 -571 c29
  -16 51 -67 44 -101 -14 -62 -102 -90 -155 -49 -20 15 -25 28 -25 65 0 39 5 51
  28 71 30 25 75 31 108 14z m-311 -160 c18 -18 20 -33 20 -160 0 -136 -1 -142
  -25 -165 -41 -42 -104 -30 -123 23 -5 16 -8 86 -6 157 3 101 8 132 21 147 23
  25 87 24 113 -2z"/>
  <path d="M2221 2320 l0 -320 94 0 95 0 0 320 0 320 -94 0 -94 0 -1 -320z"/>
  <path d="M2530 2320 l0 -220 89 0 88 0 78 75 77 75 68 0 c57 0 80 6 143 36
  l75 35 -76 40 c-66 34 -84 39 -144 39 l-68 0 -81 70 -81 70 -84 0 -84 0 0
  -220z"/>
</g>
</svg>
